<svg width="375" height="233" viewBox="0 0 375 233" fill="none" xmlns="http://www.w3.org/2000/svg">
<path d="M109.325 159.979L-12.6789 272.993L-31 289.934L23.058 290L36.8122 273.046L128.285 159.979H109.325Z" fill="#95A196"/>
<path d="M142.413 159.979L73.7749 272.993L63.456 289.934L117.541 290L123.279 273.046L161.373 159.979H142.413Z" fill="#85A088"/>
<path d="M175.499 159.979L160.213 272.993L157.896 289.934L212.021 290L209.757 273.046L194.459 159.979H175.499Z" fill="#5C9F63"/>
<path d="M208.588 159.979L246.669 272.993L252.354 289.934L306.519 290L296.24 273.046L227.549 159.979H208.588Z" fill="#439F4D"/>
<path d="M241.675 159.979L333.108 272.993L346.809 289.934L401 290L382.705 273.046L260.635 159.979H241.675Z" fill="#019D12"/>
<path d="M128.286 122.555H109.325V159.978H128.286V122.555Z" fill="#95A196"/>
<path d="M161.372 101.012H142.412V159.98H161.372V101.012Z" fill="#85A088"/>
<path d="M194.459 77.2117H175.499V159.979H194.459V77.2117Z" fill="#5C9F63"/>
<path d="M227.549 52.9736H208.588V159.978H227.549V52.9736Z" fill="#439F4D"/>
<path d="M260.635 28.2856H241.675V159.978H260.635V28.2856Z" fill="#019D12"/>
<g style="mix-blend-mode:overlay">
<path d="M109.325 159.979L-12.6789 272.993L-31 289.934L23.058 290L36.8122 273.046L128.285 159.979H109.325Z" fill="#B3B3B3"/>
</g>
<g style="mix-blend-mode:overlay">
<path d="M142.41 159.979L73.7723 272.993L63.4534 289.934L117.538 290L123.277 273.046L161.37 159.979H142.41Z" fill="#B3B3B3"/>
</g>
<g style="mix-blend-mode:overlay">
<path d="M175.499 159.979L160.213 272.993L157.897 289.934L212.021 290L209.758 273.046L194.459 159.979H175.499Z" fill="#B3B3B3"/>
</g>
<g style="mix-blend-mode:overlay">
<path d="M208.586 159.979L246.666 272.993L252.352 289.934L306.516 290L296.237 273.046L227.546 159.979H208.586Z" fill="#B3B3B3"/>
</g>
<g style="mix-blend-mode:overlay">
<path d="M241.673 159.979L333.105 272.993L346.806 289.934L400.997 290L382.703 273.046L260.633 159.979H241.673Z" fill="#B3B3B3"/>
</g>
<path d="M117.579 102.351L95.33 133.301H139.841L117.579 102.351Z" fill="#95A196"/>
<path d="M152.052 76.0981L129.79 107.048H174.301L152.052 76.0981Z" fill="#85A088"/>
<path d="M184.488 50.5068L162.239 81.4567H206.75L184.488 50.5068Z" fill="#5C9F63"/>
<path d="M218.055 26.2695L195.806 57.2194H240.317L218.055 26.2695Z" fill="#439F4D"/>
<path d="M250.716 0.679443L228.467 31.6293H272.978L250.716 0.679443Z" fill="#019D12"/>
</svg>
