<svg width="322" height="194" viewBox="0 0 322 194" fill="none" xmlns="http://www.w3.org/2000/svg">
<path fill-rule="evenodd" clip-rule="evenodd" d="M108.232 137.127C105.414 132.419 102.621 127.692 99.301 123.289C102.187 125.052 103.775 127.942 105.947 130.327C105.628 127.52 103.478 125.822 101.852 123.924C97.873 119.285 93.1164 115.487 87.5333 112.959C82.222 110.555 76.7542 109.832 70.9678 111.878C68.4659 112.765 65.5686 112.584 63.0448 113.732C56.4181 116.747 50.736 124.557 52.6474 133.079C55.0559 143.798 61.8227 151.542 69.5782 158.627C74.3649 163.003 79.6075 166.82 85.4104 169.811C87.0115 170.635 87.525 171.413 85.9459 173.001C82.1808 176.788 77.7264 179.349 72.6787 180.874C63.9428 183.514 55.0697 183.303 46.1443 181.92C33.9921 180.039 22.466 176.487 11.9835 169.868C9.73977 168.452 7.29833 166.796 4.31589 168.228C3.36842 168.682 3.10479 166.831 1.93488 167.582C1.51744 168.912 3.30526 169.592 3.15696 171.133C1.74263 170.898 1.66025 169.318 0.465623 168.85C-0.68781 170.517 0.567237 171.752 1.36915 172.913C4.15935 176.95 8.02335 179.867 12.2114 182.23C38.2103 196.9 64.4179 198.612 90.7546 183.073C92.8555 181.833 94.9482 180.403 96.6289 178.662C98.587 176.632 100.325 176.624 102.877 177.487C117.193 182.32 131.844 182.523 146.564 179.823C152.584 178.722 158.81 177.772 164.374 175.414C169.803 173.113 175.894 172.585 180.813 169.307C182.93 167.897 185.668 168.001 187.481 165.769C188.39 164.651 190.722 165.237 192.369 164.388C218.486 150.923 241.127 133.106 259.82 110.47C270.943 96.9992 280.577 82.4686 287.989 66.64C291.622 58.8818 295.827 51.3838 298.963 43.3929C299.13 42.9629 299.249 42.4398 300.086 42.344C300.515 46.282 300.764 50.2419 301.402 54.1388C302.736 62.2639 305.721 69.992 307.485 78.0268C307.8 79.4563 308.655 81.7046 310.275 81.198C311.373 80.8557 310.473 78.5115 310.198 77.0382C308.402 67.3713 305.949 57.8057 305.488 47.9251C305.458 47.2597 305.543 46.586 305.713 45.915C306.913 55.3273 309.157 64.5342 310.703 73.8643C311.038 75.8825 311.615 77.8789 312.266 79.8233C312.667 81.0282 312.865 82.9287 315.062 81.1049C315.685 80.5818 317.162 81.9757 318.492 80.5736C319.692 79.3057 320.244 78.2596 320.271 76.5453C320.491 63.2608 320.222 50.0064 318.868 36.7684C318.401 32.2006 318.637 27.5588 318.604 22.9499C318.569 18.2534 318.596 13.5541 318.783 8.83836C318.082 29.2375 321.644 49.4449 320.972 69.8578C322.023 61.1931 322.405 52.5477 321.463 43.8474C320.469 34.6762 320.387 25.4502 320.282 16.2296C320.255 13.88 319.826 11.5166 319.977 9.18889C320.137 6.78448 318.242 5.59594 317.366 3.82413C317.215 3.51468 316.742 3.10938 316.473 3.14772C313.241 3.62422 311.06 1.17871 308.317 0.318821C307.946 0.201065 307.482 -0.091972 307.213 0.0285225C304.988 1.01712 302.215 0.765198 300.399 2.57809C293.514 9.45449 285.962 15.5888 278.822 22.1749C268.639 31.5625 258.617 41.1226 247.811 49.8174C246.899 50.5486 246.127 51.466 245.372 52.3642C244.491 53.4131 244.732 54.5194 245.326 55.6559C245.897 56.7486 246.701 56.9457 247.924 57.0772C258.843 58.2383 266.576 51.6632 274.763 46.2163C277.287 44.5403 279.651 42.6288 282.4 40.5969C282.354 43.1163 280.75 44.5348 279.852 46.2108C271.396 61.9737 262.306 77.4161 252.405 92.2725C237.49 114.657 218.357 132.945 194.813 146.421C190.927 148.647 187.006 150.825 183.238 153.317C179.333 155.899 174.56 157.26 170.039 158.785C168.458 159.322 167.148 160.292 165.557 160.768C163.723 161.321 162.103 162.786 159.983 161.803C159.906 161.768 159.757 161.776 159.697 161.828C157.228 163.953 154.141 162.636 151.384 163.279C148.204 164.022 144.719 163.739 141.701 164.821C140.031 165.421 139.191 164.821 138.07 164.397C135.917 163.578 134.148 165.555 131.896 164.901C126.121 163.227 119.98 163.101 114.279 161.02C113.107 160.59 111.072 161.34 110.816 160.385C110.396 158.81 110.717 156.877 111.242 155.264C111.755 153.695 111.547 152.243 111.527 150.712C111.503 148.713 112.2 146.566 111.662 144.756C111.162 143.072 109.157 141.952 108.984 139.843C108.907 138.893 108.446 137.973 108.16 137.042L108.24 137.127H108.232ZM91.6225 149.127C84.5206 143.324 77.5835 137.436 75.2327 128.068C83.6885 132.789 89.604 139.471 91.6225 149.127ZM61.9436 140.991C66.214 146.353 70.9623 151.367 75.5046 156.551C69.8144 153.029 63.5337 145.89 61.9436 140.991ZM85.8361 129.555C90.9441 132.351 94.6516 138.578 93.6602 140.982C92.0042 137.157 88.3846 134.163 85.8361 129.555ZM80.9093 141.563C77.7154 138.616 74.9499 135.368 73.942 131.009C76.0539 134.659 78.4294 138.132 80.9093 141.563ZM316.35 26.9043H316.55V36.4781H316.35V26.9043ZM305.079 33.5397C305.057 33.8409 305.233 33.8355 305.244 34.1614C305.367 37.1354 305.826 40.1148 305.079 43.0971V33.5424V33.5397Z" fill="#41B38F"/>
</svg>
